<svg width="293" height="286" viewBox="0 0 293 286" fill="none" xmlns="http://www.w3.org/2000/svg">
<path d="M237.927 24.3179H69.2646V278.284H237.927V24.3179Z" fill="white"/>
<path d="M217.026 59.6255H90.9429V252.934H217.026V59.6255Z" fill="white"/>
<path opacity="0.6" d="M237.927 24.3179V116.706C216.437 108.043 186.05 99.3063 149.535 99.3063C114.525 99.3063 87.7866 105.486 69.2646 112.048V24.3179H237.927Z" fill="white"/>
<path opacity="0.6" d="M69.2656 260.139C69.2656 260.139 69.9776 269.245 85.6356 269.245C101.293 269.245 205.571 270 221.452 270C237.333 270 237.928 258.792 237.928 258.792V278.286H69.2656V260.139Z" fill="#6C1004"/>
<path d="M235.411 285.999H71.7808C66.7048 285.999 62.5898 282.897 62.5898 279.07C62.5898 275.243 66.7048 272.141 71.7808 272.141H235.411C240.487 272.141 244.602 275.243 244.602 279.07C244.602 282.897 240.487 285.999 235.411 285.999Z" fill="url(#paint0_linear_111_5317)"/>
<path opacity="0.3" d="M67.5877 275.969C67.1987 277.437 116.664 278.012 153.596 277.709C190.916 277.403 240.382 277.584 240.382 275.969C240.382 275.119 198.828 275.209 153.596 275.223C112.768 275.236 67.8227 275.085 67.5877 275.969Z" fill="url(#paint1_linear_111_5317)"/>
<path opacity="0.4" d="M239.78 272.141H67.4118C64.7498 272.141 62.5908 273.769 62.5908 275.776V282.364C62.5908 284.371 64.7498 285.999 67.4118 285.999H239.78C242.442 285.999 244.601 284.371 244.601 282.364V275.776C244.602 273.769 242.443 272.141 239.78 272.141ZM242.301 281.138C242.301 283.145 240.142 284.772 237.48 284.772H69.7128C67.0508 284.772 64.8918 283.145 64.8918 281.138V278.288C64.8918 276.28 67.0508 274.652 69.7128 274.652H237.48C240.142 274.652 242.301 276.28 242.301 278.288V281.138Z" fill="#550101"/>
<path opacity="0.4" d="M69.2646 272.141C69.2646 272.141 92.6396 270.726 151.769 270.726C210.898 270.726 237.927 272.141 237.927 272.141C237.927 272.141 192.533 273.663 152.047 273.558C111.561 273.453 69.2646 272.141 69.2646 272.141Z" fill="#671605"/>
<path d="M46.2689 59.7919H46.2669C46.2489 59.9359 46.2289 60.0799 46.2109 60.2229C46.1909 60.3669 46.1729 60.5089 46.1539 60.6529C46.0389 61.5069 45.9169 62.3429 45.7889 63.1569C45.7059 63.6909 45.6219 64.2139 45.5319 64.7279C45.5069 64.8679 45.4819 65.0069 45.4579 65.1449C45.3209 65.9199 45.1779 66.6679 45.0269 67.3849C44.9769 67.6239 44.9259 67.8589 44.8759 68.0909C44.8509 68.1989 44.8269 68.3049 44.8039 68.4109C44.7989 68.4399 44.7909 68.4679 44.7839 68.4949C44.6889 68.9169 44.5899 69.3269 44.4889 69.7229C44.4849 69.7369 44.4819 69.7499 44.4779 69.7629C44.4239 69.9769 44.3679 70.1849 44.3129 70.3899C44.0059 71.5189 43.6789 72.5219 43.3299 73.3719C43.2989 73.4489 43.2669 73.5249 43.2349 73.5989C43.1669 73.7609 43.0969 73.9169 43.0259 74.0659C43.0009 74.1179 42.9769 74.1679 42.9519 74.2189C42.8839 74.3569 42.8139 74.4919 42.7439 74.6199C42.7169 74.6719 42.6879 74.7229 42.6589 74.7709C42.3729 75.2689 42.0769 75.6639 41.7659 75.9479C41.7429 75.9709 41.7189 75.9929 41.6939 76.0139C41.6649 76.0389 41.6349 76.0639 41.6019 76.0879C41.5749 76.1089 41.5479 76.1289 41.5209 76.1469C41.5169 76.1509 41.5119 76.1539 41.5069 76.1579C41.4749 76.1809 41.4419 76.2029 41.4079 76.2229C41.3739 76.2439 41.3379 76.2659 41.3019 76.2839C41.2699 76.3019 41.2369 76.3179 41.2029 76.3329C41.1719 76.3469 41.1419 76.3599 41.1129 76.3709C41.0839 76.3819 41.0569 76.3909 41.0289 76.3979C40.9619 76.4209 40.8939 76.4379 40.8259 76.4469C40.8039 76.4509 40.7829 76.4539 40.7629 76.4559C40.7269 76.4599 40.6889 76.4629 40.6519 76.4629C34.8979 76.5909 36.2279 46.5329 37.1579 37.2229C37.1719 37.0839 37.1869 36.9459 37.2049 36.8079C37.2179 36.6929 37.2339 36.5759 37.2499 36.4589C37.2709 36.2939 37.2969 36.1279 37.3239 35.9609C37.3469 35.8209 37.3709 35.6789 37.3979 35.5389C37.4229 35.3949 37.4499 35.2529 37.4789 35.1089C37.5039 34.9809 37.5309 34.8539 37.5579 34.7259C37.6229 34.4219 37.6929 34.1179 37.7699 33.8129C37.8059 33.6689 37.8419 33.5249 37.8809 33.3799C37.9219 33.2219 37.9669 33.0619 38.0119 32.9039C38.0479 32.7749 38.0859 32.6469 38.1249 32.5179C38.2129 32.2199 38.3069 31.9209 38.4049 31.6249C38.4429 31.5099 38.4819 31.3969 38.5199 31.2839C38.5779 31.1189 38.6349 30.9549 38.6939 30.7909C38.7429 30.6559 38.7929 30.5209 38.8429 30.3879C38.9989 29.9709 39.1649 29.5589 39.3369 29.1569C39.3949 29.0219 39.4519 28.8889 39.5109 28.7559C39.5699 28.6249 39.6299 28.4929 39.6889 28.3619C39.6929 28.3549 39.6959 28.3479 39.6979 28.3399C39.7549 28.2179 39.8129 28.0959 39.8709 27.9749C40.2969 27.0819 40.7539 26.2469 41.2229 25.5069C41.4209 25.1889 41.6239 24.8889 41.8299 24.6079C43.9149 21.7299 46.1139 20.8919 47.1019 24.7639C47.2579 25.3809 47.3859 26.1159 47.4759 26.9819C48.1719 33.6459 47.7619 48.1879 46.2689 59.7919Z" fill="#370800"/>
<path opacity="0.4" d="M47.8 36.5379C47.746 43.5699 47.234 52.2939 46.267 59.7919C45.079 69.0299 43.202 76.4069 40.651 76.4629C34.897 76.5909 36.227 46.5329 37.157 37.2229C37.597 32.8149 39.654 27.6059 41.831 24.6069C43.916 21.7289 46.115 20.8909 47.103 24.7629C47.259 25.3799 47.387 26.1149 47.477 26.9809C47.723 29.3399 47.831 32.6859 47.8 36.5379Z" fill="#FF2F2F"/>
<path opacity="0.6" d="M47.477 26.9819C47.387 26.1159 47.26 25.3799 47.103 24.7639L41.831 24.6079C41.628 24.8879 41.425 25.1899 41.224 25.5069C40.757 26.2479 40.3 27.0819 39.872 27.9749C39.814 28.0949 39.757 28.2179 39.699 28.3399C39.697 28.3469 39.694 28.3539 39.69 28.3619C39.631 28.4929 39.571 28.6239 39.512 28.7559C39.453 28.8889 39.395 29.0219 39.338 29.1569C39.165 29.5599 39 29.9709 38.844 30.3879C38.794 30.5209 38.743 30.6559 38.695 30.7909C38.636 30.9549 38.578 31.1179 38.521 31.2839C38.483 31.3969 38.444 31.5109 38.406 31.6249C38.307 31.9219 38.214 32.2199 38.126 32.5179C38.086 32.6479 38.049 32.7749 38.013 32.9039C37.968 33.0619 37.923 33.2219 37.882 33.3799C37.843 33.5259 37.806 33.6689 37.771 33.8129C37.694 34.1189 37.624 34.4219 37.559 34.7259C37.532 34.8539 37.505 34.9809 37.48 35.1089C37.451 35.2529 37.424 35.3949 37.399 35.5389C37.372 35.6789 37.349 35.8209 37.325 35.9609C37.298 36.1279 37.273 36.2939 37.251 36.4589C37.235 36.5759 37.219 36.6929 37.206 36.8079C37.188 36.9459 37.174 37.0849 37.159 37.2229C36.23 46.5329 34.899 76.5909 40.653 76.4629C40.691 76.4629 40.729 76.4589 40.764 76.4559C40.784 76.4539 40.805 76.4509 40.827 76.4469C40.895 76.4379 40.964 76.4219 41.03 76.3979C41.059 76.3909 41.086 76.3819 41.114 76.3709C41.143 76.3599 41.173 76.3479 41.204 76.3329C41.238 76.3189 41.27 76.3019 41.303 76.2839C41.339 76.2659 41.375 76.2439 41.409 76.2229C41.443 76.2029 41.475 76.1819 41.508 76.1579C41.513 76.1539 41.519 76.1509 41.522 76.1469C41.549 76.1289 41.576 76.1089 41.603 76.0879C41.635 76.0649 41.666 76.0389 41.695 76.0139C41.72 75.9929 41.744 75.9709 41.767 75.9479C42.078 75.6639 42.375 75.2689 42.66 74.7709C42.689 74.7219 42.718 74.6719 42.745 74.6199C42.815 74.4919 42.885 74.3579 42.953 74.2189C42.978 74.1689 43.002 74.1179 43.027 74.0659C43.097 73.9169 43.167 73.7599 43.236 73.5989C43.268 73.5249 43.301 73.4499 43.331 73.3719C43.68 72.5219 44.007 71.5189 44.314 70.3899C44.37 70.1849 44.426 69.9759 44.479 69.7629C44.483 69.7499 44.486 69.7379 44.49 69.7229C44.591 69.3279 44.69 68.9179 44.785 68.4949C44.792 68.4679 44.799 68.4389 44.805 68.4109C44.828 68.3049 44.852 68.1989 44.877 68.0909C44.927 67.8589 44.978 67.6239 45.028 67.3849C45.177 66.6679 45.321 65.9179 45.459 65.1449C45.482 65.0069 45.508 64.8679 45.533 64.7279C45.619 64.2159 45.706 63.6909 45.79 63.1569C45.918 62.3429 46.04 61.5069 46.155 60.6529C46.175 60.5089 46.193 60.3669 46.212 60.2229C46.23 60.0789 46.25 59.9349 46.268 59.7919H46.27C47.762 48.1879 48.172 33.6459 47.477 26.9819ZM46.238 47.8359C45.715 54.1729 44.443 60.1599 43.692 59.4139C43.312 59.0369 43.98 52.0329 44.058 46.4699C44.134 41.0559 43.18 35.4369 44.475 35.0319C46.86 34.2879 46.759 41.4969 46.238 47.8359Z" fill="#FF2F2F"/>
<path d="M285.029 19.355H22.3242V31.135H285.029V19.355Z" fill="url(#paint2_linear_111_5317)"/>
<path opacity="0.4" d="M22.3242 19.355V31.135H285.03V19.355H22.3242ZM275.175 24.803C273.821 26.09 271.587 27.133 268.916 27.097C264.327 27.036 260.126 22.758 262.551 20.795C263.639 19.914 272.747 19.866 275.67 21.133C276.2 21.363 276.527 21.636 276.565 21.956C276.667 22.826 276.15 23.877 275.175 24.803Z" fill="#FF2F2F"/>
<path opacity="0.6" d="M25.8062 31.1339H22.3242V19.3539H25.4592C26.5652 22.7649 26.5962 27.7149 25.8062 31.1339Z" fill="#5A0000"/>
<path opacity="0.6" d="M281.632 31.1339H276.813C275.711 29.6559 275.166 27.2059 275.175 24.8029C275.18 23.5119 275.344 22.2359 275.669 21.1319C275.865 20.4649 276.118 19.8589 276.433 19.3539H281.634C283.649 22.2589 283.561 28.3839 281.632 31.1339Z" fill="#490707"/>
<path opacity="0.6" d="M42.0661 25.4249C41.7871 27.3879 42.0771 29.5809 42.6721 31.1339H28.9321C28.1821 27.7579 28.5651 22.5289 29.8471 19.3539H45.8391C44.1741 20.3129 42.4271 22.8869 42.0661 25.4249Z" fill="#FF2F2F"/>
<path opacity="0.6" d="M261.134 31.1339H253.972C252.911 27.4379 252.423 22.2899 252.218 19.3539H261.929C262.682 22.3569 263.166 26.8759 261.134 31.1339Z" fill="#6F2121"/>
<path opacity="0.6" d="M55.9381 31.1339H45.2241C43.8001 27.1539 44.6491 22.6399 45.7441 19.3539H57.4641C57.5491 19.5839 57.6201 19.8199 57.6821 20.0589C58.2491 22.3039 57.5381 27.2319 55.9381 31.1339Z" fill="#5D0000"/>
<path d="M24.1218 13.6199V36.4769C24.1218 38.6209 22.6398 40.4759 20.5518 40.9599C16.6668 41.8599 10.8888 42.1959 9.99978 36.5949C8.64178 28.0399 8.64178 10.3869 13.9378 9.43594C15.9708 9.07094 17.9428 8.98594 19.6018 9.01994C22.1108 9.07194 24.1218 11.1099 24.1218 13.6199Z" fill="url(#paint3_linear_111_5317)"/>
<path opacity="0.3" d="M16.8798 15.3399C9.85983 14.9149 10.5058 28.4389 16.2968 29.1269C23.0768 29.9319 23.9028 15.7649 16.8798 15.3399Z" fill="url(#paint4_linear_111_5317)"/>
<path opacity="0.4" d="M19.601 9.01989C17.942 8.98589 15.97 9.07189 13.937 9.43689C9.166 10.2929 8.693 24.7089 9.641 33.8119C9.745 34.8129 9.866 35.7479 10.001 36.5949C10.889 42.1959 16.668 41.8599 20.553 40.9599C22.574 40.4929 24.026 38.7419 24.119 36.6849C24.121 36.6169 24.123 36.5469 24.123 36.4759V13.6199C24.122 11.1109 22.111 9.07189 19.601 9.01989ZM13.448 12.0899C15.159 9.95289 18.936 10.4509 20.931 11.3779C22.926 12.3039 23.354 26.6309 22.285 29.3379C21.217 32.0469 14.232 32.5449 12.164 29.9799C10.097 27.4149 11.264 14.8209 13.448 12.0899Z" fill="#660000"/>
<path opacity="0.4" d="M24.1181 36.685C24.0251 38.741 22.5721 40.492 20.5521 40.96C16.6671 41.861 10.8881 42.197 10.0001 36.595C9.86514 35.748 9.74514 34.814 9.64014 33.812C9.64014 33.812 10.6111 39.334 16.9691 39.196C20.4981 39.119 22.7831 37.823 24.1181 36.685Z" fill="url(#paint5_linear_111_5317)"/>
<path d="M277.589 13.6199V36.4769C277.589 38.6209 279.071 40.4759 281.159 40.9599C285.043 41.8599 290.822 42.1959 291.711 36.5949C293.069 28.0399 293.069 10.3869 287.773 9.43594C285.74 9.07094 283.768 8.98594 282.109 9.01994C279.6 9.07194 277.589 11.1099 277.589 13.6199Z" fill="url(#paint6_linear_111_5317)"/>
<path opacity="0.3" d="M283.903 14.7899C278.49 14.7879 278.954 25.8859 284.765 26.3249C290.576 26.7649 293.026 14.7929 283.903 14.7899Z" fill="url(#paint7_linear_111_5317)"/>
<path opacity="0.4" d="M287.773 9.43689C285.74 9.07189 283.768 8.98589 282.109 9.01989C279.6 9.07189 277.588 11.1109 277.588 13.6199V36.4769C277.588 38.6219 279.071 40.4769 281.16 40.9599C285.045 41.8609 290.822 42.1969 291.712 36.5949C291.879 35.5489 292.025 34.3639 292.142 33.0919C292.99 23.9689 292.42 10.2699 287.773 9.43689ZM279.678 12.1119C280.611 10.2429 285.427 9.84189 288.283 11.2709C291.141 12.6999 291.636 23.1419 290.372 27.5389C289.108 31.9359 280.865 31.2759 279.655 28.5279C278.447 25.7809 278.812 13.8429 279.678 12.1119Z" fill="#5F0606"/>
<path opacity="0.4" d="M292.141 33.0918C292.024 34.3648 291.878 35.5488 291.711 36.5948C290.821 42.1958 285.044 41.8598 281.159 40.9598C279.07 40.4758 277.587 38.6208 277.587 36.4768V33.1438L277.727 32.7988C277.727 32.7988 278.8 39.7628 284.953 39.1498C291.109 38.5368 292.141 33.0918 292.141 33.0918Z" fill="url(#paint8_linear_111_5317)"/>
<path d="M259.7 23.7429C259.668 24.5359 259.587 25.3999 259.455 26.3149C258.443 33.4729 254.519 43.6419 249.052 45.8779C242.888 48.3979 63.8451 46.1569 59.9231 45.8779C57.7841 45.7249 54.4761 42.9879 51.8211 39.2579C49.6101 36.1499 47.8501 32.3529 47.5951 28.7869C47.5341 27.9279 47.4921 26.9859 47.4801 25.9859C47.4191 21.0729 48.0321 14.7559 50.1571 10.0809C50.9861 8.25294 52.0481 6.67594 53.3911 5.53294C54.3111 4.74794 55.3631 4.16694 56.5621 3.84894C56.8931 3.76094 58.7801 3.69094 61.9421 3.63094C66.6821 3.54494 74.2831 3.49094 83.7791 3.45994C136.634 3.28594 248.19 3.84794 251.855 3.84794C252.358 3.84794 252.844 3.99194 253.313 4.25794C254.967 5.19294 256.394 7.63894 257.478 10.6299C257.945 11.9169 258.348 13.3029 258.679 14.7139C259.425 17.9019 259.801 21.2079 259.7 23.7429Z" fill="url(#paint9_linear_111_5317)"/>
<path opacity="0.3" d="M257.478 10.6308C230.507 15.4308 144.704 20.2818 103.815 15.5458C79.7539 12.7578 63.2159 13.7848 61.9419 3.63084C66.6819 3.54484 74.2829 3.49084 83.7789 3.45984C84.3599 4.20184 84.9819 4.91784 85.6429 5.57884C90.5289 10.4628 192.917 13.0048 221.249 11.2448C234.052 10.4498 245.074 7.38184 253.313 4.25784C254.967 5.19284 256.394 7.63984 257.478 10.6308Z" fill="url(#paint10_linear_111_5317)"/>
<path opacity="0.3" d="M259.7 23.7429C259.668 24.5359 259.587 25.3999 259.455 26.3149C248.799 26.0989 233.384 25.7589 213.043 25.2439C177.285 24.3399 118.173 29.1399 77.2342 22.1489C64.9732 20.0549 52.6002 23.0379 50.1572 10.0819C50.9862 8.25394 52.0482 6.67694 53.3912 5.53394C59.7962 19.0019 70.3252 19.2299 88.9662 20.1559C124.631 21.9269 245.127 17.6949 252.219 16.3269C254.097 15.9639 256.362 15.3799 258.68 14.7159C259.425 17.9019 259.801 21.2079 259.7 23.7429Z" fill="url(#paint11_linear_111_5317)"/>
<path opacity="0.3" d="M60.1421 9.5979C47.1031 9.5979 50.6151 28.2899 58.2991 28.2739C66.7581 28.2569 72.1211 9.5979 60.1421 9.5979Z" fill="url(#paint12_linear_111_5317)"/>
<path opacity="0.3" d="M244.67 9.01283C239.028 9.33183 238.154 28.7368 247.047 28.2738C255.94 27.8108 259.462 8.17783 244.67 9.01283Z" fill="url(#paint13_linear_111_5317)"/>
<path opacity="0.3" d="M95.413 41.4759C85.909 42.6749 64.474 41.8009 51.821 39.2579C49.61 36.1499 47.85 32.3529 47.595 28.7869C47.534 27.9279 47.492 26.9859 47.48 25.9859C54.66 23.6689 65.918 24.2369 68.731 23.6399C72.281 22.8869 71.932 26.9119 75.483 27.0969C75.483 27.0969 56.04 29.1229 58.58 33.8129C61.12 38.5029 93.263 36.4519 93.263 36.4519C93.263 36.4519 108.895 39.7739 95.413 41.4759Z" fill="url(#paint14_linear_111_5317)"/>
<path opacity="0.3" d="M228.674 29.2229C229.456 29.2229 247.237 28.4409 251.34 31.7629C255.443 35.0849 251.535 45.245 225.938 45.05L227.697 39.188C227.697 39.188 241.961 41.0649 246.455 37.0979C250.949 33.1309 227.892 31.5679 227.892 31.5679L228.674 29.2229Z" fill="url(#paint15_linear_111_5317)"/>
<path opacity="0.4" d="M251.855 3.84784C247.091 3.84784 60.144 2.89684 56.562 3.84784C48.219 6.06384 47.035 20.9398 47.596 28.7858C47.851 32.3528 49.611 36.1488 51.822 39.2568C51.822 39.2568 51.824 39.2588 51.826 39.2608C54.481 42.9888 57.785 45.7248 59.924 45.8778C60.764 45.9368 69.642 46.0868 83.135 46.2608C119.359 46.7268 188.852 47.3658 225.403 46.9008C238.788 46.7278 247.756 46.4078 249.054 45.8778C252.133 44.6178 254.724 40.8378 256.581 36.4978C258.44 32.1528 259.561 27.2478 259.702 23.7418C259.98 16.7368 256.617 3.84784 251.855 3.84784ZM50.218 28.8188C49.422 23.5178 48.69 11.7778 53.664 6.81784C57.354 3.13684 69.966 4.69684 69.265 7.34784C68.566 9.99784 67.448 25.7698 66.917 30.8068C66.387 35.8438 51.012 34.1198 50.218 28.8188ZM255.785 30.8068C252.869 36.6378 238.555 36.1078 239.616 29.3488C240.677 22.5898 236.914 8.39984 238.688 6.15484C241.073 3.13484 250.617 4.56384 253.664 6.15484C256.712 7.74584 258.7 24.9758 255.785 30.8068Z" fill="#660000"/>
<path opacity="0.4" d="M84.1192 37.9258L83.1342 46.2618C69.6412 46.0878 60.7632 45.9378 59.9232 45.8788C57.7842 45.7258 54.4802 42.9898 51.8252 39.2618C52.0052 39.4078 57.8112 44.0608 65.9432 44.4658C74.2052 44.8788 84.1192 37.9258 84.1192 37.9258Z" fill="url(#paint16_linear_111_5317)"/>
<path opacity="0.4" d="M256.579 36.4978C254.722 40.8368 252.132 44.6178 249.052 45.8778C247.754 46.4078 238.786 46.7278 225.401 46.9008L227.774 43.7498C227.774 43.7498 238.051 45.8048 245.161 43.7498C252.268 41.6928 256.491 36.7028 256.579 36.4978Z" fill="url(#paint17_linear_111_5317)"/>
<path d="M237.915 23.5289C237.875 24.9439 237.739 26.5579 237.512 28.2749C236.96 32.4719 235.876 37.2739 234.388 41.2299C234.383 41.2429 234.377 41.2569 234.374 41.2699C234.346 41.3449 234.316 41.4169 234.288 41.4909C234.247 41.5989 234.205 41.7069 234.162 41.8129C234.079 42.0249 233.993 42.2349 233.907 42.4439C233.788 42.7299 233.666 43.0099 233.542 43.2839C233.483 43.4129 233.423 43.5429 233.364 43.6699C233.321 43.7599 233.278 43.8499 233.235 43.9379C233.188 44.0369 233.14 44.1339 233.091 44.2309C233.046 44.3209 233.001 44.4109 232.954 44.4989C232.907 44.5909 232.859 44.6799 232.812 44.7719C232.717 44.9479 232.622 45.1189 232.526 45.2879C232.377 45.5469 232.228 45.7949 232.073 46.0339C232.026 46.1059 231.98 46.1779 231.935 46.2479C231.93 46.2529 231.926 46.2609 231.921 46.2679C231.819 46.4209 231.716 46.5679 231.612 46.7119C231.56 46.7839 231.508 46.8539 231.454 46.9239C231.411 46.9819 231.366 47.0409 231.321 47.0969C231.206 47.2409 231.091 47.3789 230.974 47.5099C230.879 47.6199 230.78 47.7259 230.683 47.8239C230.663 47.8459 230.644 47.8649 230.622 47.8849C230.575 47.9339 230.528 47.9779 230.48 48.0229C230.476 48.0279 230.471 48.0319 230.466 48.0369C230.417 48.0839 230.367 48.1289 230.317 48.1739C230.261 48.2239 230.204 48.2749 230.144 48.3229C230.105 48.3569 230.063 48.3899 230.022 48.4219C229.835 48.5679 229.646 48.6989 229.456 48.8099C224.558 51.6899 82.2768 49.1299 79.1598 48.8099C79.0858 48.8029 79.0128 48.7899 78.9348 48.7709C78.9128 48.7659 78.8898 48.7599 78.8668 48.7529C78.4768 48.6449 78.0458 48.4039 77.5908 48.0459C77.5318 47.9989 77.4718 47.9509 77.4128 47.8999C77.3208 47.8239 77.2298 47.7419 77.1358 47.6569C77.1048 47.6279 77.0728 47.5989 77.0418 47.5689C77.0108 47.5419 76.9808 47.5109 76.9488 47.4809C76.8858 47.4199 76.8228 47.3569 76.7588 47.2939C76.1568 46.6789 75.5278 45.9009 74.9038 44.9949C74.8408 44.9029 74.7778 44.8119 74.7148 44.7159C74.6788 44.6639 74.6448 44.6119 74.6108 44.5599C74.5608 44.4859 74.5118 44.4109 74.4638 44.3329C74.4478 44.3079 74.4298 44.2829 74.4148 44.2569C74.3568 44.1689 74.2998 44.0789 74.2438 43.9869C74.2028 43.9219 74.1608 43.8559 74.1218 43.7889C74.0568 43.6829 73.9928 43.5769 73.9278 43.4669C73.8868 43.3969 73.8428 43.3269 73.8018 43.2569C73.6828 43.0539 73.5658 42.8449 73.4478 42.6329C73.4258 42.5939 73.4048 42.5519 73.3818 42.5129C73.3418 42.4389 73.3008 42.3639 73.2598 42.2879C73.0208 41.8419 72.7848 41.3819 72.5568 40.9069C72.5458 40.8849 72.5368 40.8659 72.5258 40.8439C72.4358 40.6549 72.3458 40.4649 72.2578 40.2709C72.2308 40.2119 72.2018 40.1509 72.1748 40.0889C72.1278 39.9869 72.0818 39.8839 72.0368 39.7799C72.0098 39.7169 71.9828 39.6559 71.9558 39.5929C71.8588 39.3719 71.7648 39.1489 71.6718 38.9229C71.6248 38.8059 71.5788 38.6889 71.5318 38.5719C71.5028 38.4999 71.4738 38.4279 71.4478 38.3559C71.3848 38.1979 71.3238 38.0379 71.2648 37.8759C71.2198 37.7589 71.1768 37.6419 71.1358 37.5249C71.0928 37.4059 71.0518 37.2899 71.0098 37.1709C70.9128 36.8919 70.8178 36.6119 70.7278 36.3309C70.6988 36.2449 70.6718 36.1579 70.6448 36.0699C70.5908 35.8989 70.5408 35.7299 70.4898 35.5599C70.4598 35.4569 70.4288 35.3529 70.3998 35.2509C70.3338 35.0169 70.2688 34.7839 70.2098 34.5499C70.1848 34.4579 70.1608 34.3689 70.1398 34.2769C69.9838 33.6529 69.8468 33.0279 69.7338 32.3999C69.7138 32.2899 69.6948 32.1789 69.6748 32.0689V32.0619C69.6548 31.9429 69.6348 31.8249 69.6168 31.7059C69.5398 31.2029 69.4768 30.7029 69.4318 30.2029C69.4208 30.0879 69.4118 29.9749 69.4028 29.8599C69.3938 29.7379 69.3848 29.6149 69.3778 29.4949C69.3728 29.4249 69.3688 29.3569 69.3648 29.2859C68.9188 20.3249 69.8588 3.33389 76.4888 0.802892C79.3378 -0.285109 227.899 0.802892 231.683 0.802892C235.465 0.806892 238.138 15.5279 237.915 23.5289Z" fill="#FFFDF8"/>
<path opacity="0.4" d="M71.8379 6.64692C72.9259 3.75792 74.4319 1.58992 76.4849 0.80692C79.3339 -0.28108 227.895 0.80692 231.679 0.80692C233.015 0.80692 234.214 2.64092 235.193 5.36592C205.863 0.576922 95.3989 3.12792 71.8379 6.64692Z" fill="#4B4B4B"/>
<path opacity="0.4" d="M237.512 28.2739C236.96 32.4709 235.876 37.2729 234.388 41.2289C234.383 41.2419 234.377 41.2559 234.374 41.2689C234.344 41.3429 234.317 41.4149 234.288 41.4879V41.4899C234.247 41.5979 234.205 41.7059 234.162 41.8119C234.079 42.0239 233.993 42.2339 233.907 42.4429C233.786 42.7289 233.666 43.0089 233.542 43.2829C233.483 43.4119 233.423 43.5419 233.364 43.6689C233.321 43.7589 233.278 43.8489 233.235 43.9369C233.188 44.0359 233.14 44.1329 233.091 44.2299C233.046 44.3199 233.001 44.4099 232.954 44.4979C232.907 44.5899 232.859 44.6789 232.812 44.7709C232.717 44.9469 232.622 45.1179 232.526 45.2869C232.377 45.5459 232.228 45.7939 232.073 46.0329C232.026 46.1049 231.98 46.1769 231.935 46.2469C231.93 46.2519 231.926 46.2599 231.921 46.2669C231.819 46.4199 231.716 46.5669 231.612 46.7109C231.56 46.7829 231.508 46.8529 231.454 46.9229C231.411 46.9809 231.366 47.0399 231.321 47.0959C231.206 47.2399 231.091 47.3779 230.974 47.5089C230.877 47.6189 230.78 47.7229 230.683 47.8229C230.663 47.8449 230.644 47.8639 230.622 47.8839C230.575 47.9329 230.528 47.9769 230.48 48.0219C230.476 48.0269 230.471 48.0309 230.466 48.0359C230.417 48.0829 230.367 48.1279 230.317 48.1729C230.261 48.2229 230.204 48.2739 230.144 48.3219C230.105 48.3559 230.063 48.3889 230.022 48.4209C229.835 48.5669 229.646 48.6979 229.456 48.8089C224.558 51.6889 82.2769 49.1289 79.1599 48.8089C79.0859 48.8019 79.0129 48.7889 78.9349 48.7699C78.9129 48.7649 78.8899 48.7589 78.8669 48.7519C78.4769 48.6439 78.0459 48.4029 77.5909 48.0449C77.5319 47.9979 77.4719 47.9499 77.4129 47.8989C77.3209 47.8229 77.2299 47.7409 77.1359 47.6559C77.1049 47.6269 77.0729 47.5979 77.0419 47.5679C77.0109 47.5409 76.9809 47.5099 76.9489 47.4799C76.8859 47.4209 76.8229 47.3579 76.7589 47.2929C76.1569 46.6779 75.5279 45.8999 74.9039 44.9939C74.8409 44.9019 74.7779 44.8109 74.7149 44.7149C74.6789 44.6629 74.6449 44.6109 74.6109 44.5589C74.5609 44.4849 74.5119 44.4099 74.4639 44.3319C74.4479 44.3069 74.4299 44.2819 74.4149 44.2559C74.3569 44.1679 74.2999 44.0779 74.2439 43.9859C74.2029 43.9209 74.1609 43.8549 74.1219 43.7879C74.0569 43.6819 73.9929 43.5759 73.9279 43.4659C73.8869 43.3959 73.8429 43.3259 73.8019 43.2559C73.6829 43.0529 73.5659 42.8439 73.4479 42.6319C73.4259 42.5929 73.4049 42.5509 73.3819 42.5119C73.3419 42.4379 73.3009 42.3629 73.2599 42.2869C73.0209 41.8409 72.7849 41.3809 72.5569 40.9059C72.5459 40.8839 72.5369 40.8649 72.5259 40.8429C72.4359 40.6539 72.3459 40.4639 72.2579 40.2699C72.2309 40.2109 72.2019 40.1499 72.1749 40.0879C72.1279 39.9859 72.0819 39.8829 72.0369 39.7789C72.0099 39.7159 71.9829 39.6549 71.9559 39.5919C71.8589 39.3709 71.7649 39.1459 71.6719 38.9219C71.6249 38.8049 71.5789 38.6879 71.5319 38.5709C71.5029 38.4989 71.4739 38.4269 71.4479 38.3549C71.3849 38.1969 71.3239 38.0369 71.2649 37.8749C71.2199 37.7579 71.1769 37.6409 71.1359 37.5239C71.0929 37.4049 71.0519 37.2889 71.0099 37.1699C70.9129 36.8909 70.8179 36.6109 70.7279 36.3299C70.6989 36.2439 70.6719 36.1569 70.6449 36.0689C70.5909 35.8979 70.5409 35.7289 70.4899 35.5589C70.4599 35.4549 70.4289 35.3519 70.3999 35.2499C70.3339 35.0159 70.2689 34.7829 70.2099 34.5489C70.1849 34.4569 70.1609 34.3679 70.1399 34.2759C69.9839 33.6519 69.8469 33.0269 69.7339 32.3989C69.7139 32.2889 69.6949 32.1779 69.6749 32.0679V32.0609C69.6549 31.9419 69.6349 31.8239 69.6169 31.7049C69.5399 31.2019 69.4769 30.7019 69.4319 30.2019C69.4209 30.0869 69.4119 29.9739 69.4029 29.8589C69.3939 29.7369 69.3849 29.6139 69.3779 29.4939C71.8749 31.7139 124.171 32.7709 151.066 32.7709C178.604 32.7749 227.372 31.8859 237.512 28.2739Z" fill="#B2A8A8"/>
<path opacity="0.4" d="M234.287 41.4889V41.4909C232.96 44.9419 231.321 47.7139 229.453 48.8109C224.555 51.6909 82.2742 49.1309 79.1572 48.8109C77.4102 48.6309 74.6882 45.3429 72.5532 40.9109C72.5532 40.9109 92.4692 47.5009 151.881 47.8189C213.594 48.1479 234.287 41.4889 234.287 41.4889Z" fill="#767676"/>
<path d="M62.771 186.805C62.41 196.737 50.641 206.927 50.641 206.927C51.727 201.676 50.641 196.753 50.641 196.753C48.288 206.135 40.199 208.917 40.199 208.917C37.303 207.455 34.553 203.019 32.302 198.245V198.243C28.975 191.184 26.742 183.389 26.742 183.389C22.94 187.191 22.94 202.943 22.94 202.943C22.94 202.943 16.603 192.984 18.595 168.361C20.587 143.739 29.949 98.6349 40.199 98.4749C51.848 98.2949 63.135 176.872 62.771 186.805Z" fill="#DE371B"/>
<path opacity="0.4" d="M62.6982 184.021C62.0442 186.058 61.2132 187.699 60.1602 188.666C54.3702 193.99 57.8572 170.097 55.7772 152.365C53.7732 135.273 47.5392 114.435 47.2462 107.085C44.9772 101.737 42.5962 98.4389 40.1992 98.4759C37.6002 98.5169 35.0562 101.449 32.6762 106.204C32.6762 106.206 32.6762 106.206 32.6762 106.206C32.8212 109.428 31.4502 113.128 30.0802 118.922C27.2292 130.977 22.5502 150.314 23.3772 171.132C23.6972 179.218 21.2772 184.285 18.6152 186.309C19.7652 197.956 22.9402 202.944 22.9402 202.944C22.9402 202.944 22.9402 187.192 26.7422 183.39C26.7422 183.39 28.9752 191.184 32.3022 198.244V198.246C34.5532 203.02 37.3032 207.457 40.1992 208.918C40.1992 208.918 48.2882 206.135 50.6412 196.754C50.6412 196.754 51.7272 201.678 50.6412 206.928C50.6412 206.928 62.4102 196.737 62.7712 186.806C62.7952 186.156 62.7702 185.215 62.6982 184.021ZM45.7442 180.368C44.2772 196.754 36.3692 191.481 34.4362 177.237C32.5052 162.993 35.1782 104.979 39.1622 106.487C41.6442 107.427 46.3172 173.962 45.7442 180.368Z" fill="#4D0B00"/>
<path opacity="0.6" d="M41.0698 99.8447C42.0618 101.186 51.9988 133.789 54.4568 162.557C56.5448 187.001 50.6408 196.754 50.6408 196.754L41.0698 99.8447Z" fill="white"/>
<path opacity="0.6" d="M35.8988 106.487C32.8208 126.835 32.3028 198.243 32.3028 198.243C28.9758 191.184 26.7428 183.389 26.7428 183.389C23.1698 149.564 28.2478 134.326 35.8988 106.487Z" fill="#690707"/>
<path opacity="0.6" d="M37.9588 98.1918C34.7268 100.505 36.7188 103.206 39.1618 103.068C47.0158 102.626 41.4178 95.7168 37.9588 98.1918Z" fill="#420707"/>
<path d="M73.0228 70.2669C57.5778 67.7489 40.3798 84.3979 40.3798 84.3979C40.3798 84.3979 28.2208 67.0909 13.5438 70.0489C-1.13324 73.0059 -5.18724 98.6379 10.1478 102.909C25.4828 107.18 39.5958 95.0229 39.5958 95.0229C39.5958 95.0229 52.4288 109.481 67.2158 107.619C82.0038 105.758 88.4678 72.7879 73.0228 70.2669ZM64.8078 99.6239C53.3068 101.486 39.5968 90.9699 39.5968 90.9699C39.5968 90.9699 26.7978 94.4749 17.7078 95.3529C8.61576 96.2279 5.21976 84.2889 15.0778 79.1399C24.9358 73.9919 39.3958 87.6839 39.5968 88.7459C39.5968 88.7459 61.8488 77.8259 69.6278 79.2489C77.4038 80.6739 76.3088 97.7619 64.8078 99.6239Z" fill="#B32F19"/>
<path opacity="0.4" d="M73.0228 70.2669C65.4118 69.0269 57.3768 72.4389 51.1818 76.2219C44.8058 80.1139 40.3798 84.3969 40.3798 84.3969C40.3798 84.3969 35.3698 77.2679 27.9008 72.9429C23.7338 70.5289 18.7998 68.9879 13.5428 70.0489C-1.13422 73.0059 -5.18822 98.6379 10.1468 102.909C18.0008 105.097 25.5328 102.975 31.0138 100.385C36.2358 97.9169 39.5958 95.0229 39.5958 95.0229C39.5958 95.0229 42.4218 98.2079 46.9498 101.394C52.0708 105 59.3698 108.608 67.2158 107.619C82.0038 105.757 88.4678 72.7869 73.0228 70.2669ZM15.3128 100.797C9.27478 100.702 0.27778 94.9779 3.97478 82.0389C7.67278 69.0979 24.1258 72.4759 23.5688 74.1369C22.8298 76.3409 11.8608 73.0419 7.30178 80.6839C3.69378 86.7289 6.56278 95.2249 13.2178 97.5669C19.8708 99.9069 29.1138 94.9779 29.3598 97.4429C29.6068 99.9079 21.3508 100.894 15.3128 100.797ZM39.5968 90.9699C39.5968 90.9699 33.8248 92.5499 27.2798 93.8549C24.0798 94.4929 20.6938 95.0649 17.7078 95.3519C8.61578 96.2269 5.21978 84.2879 15.0778 79.1389C19.2088 76.9819 24.1488 78.1319 28.5098 80.2769C34.5518 83.2479 39.4808 88.1289 39.5978 88.7449C39.5978 88.7449 46.8098 85.2049 54.4588 82.4209C60.2438 80.3119 66.2778 78.6349 69.6288 79.2479C77.4048 80.6719 76.3108 97.7599 64.8098 99.6219C61.0928 100.224 57.1448 99.5319 53.5048 98.3219C53.5028 98.3199 53.5028 98.3199 53.5008 98.3199C45.8758 95.7859 39.5968 90.9699 39.5968 90.9699ZM52.8988 102.372C48.8328 98.0599 59.3828 104.961 67.9718 101.387C76.5608 97.8129 80.3178 80.9299 74.1878 77.2329C68.0578 73.5349 54.6248 80.7129 54.0078 77.9859C53.4018 75.3039 71.5078 68.1139 76.5608 74.7679C81.6138 81.4219 80.7508 90.0489 76.5608 97.8129C72.3708 105.577 56.9668 106.686 52.8988 102.372Z" fill="#620707"/>
<path opacity="0.6" d="M53.4988 98.3218C48.5478 96.9738 47.1588 99.1328 46.9498 101.394C42.4218 98.2088 39.5958 95.0228 39.5958 95.0228C39.5958 95.0228 36.2358 97.9168 31.0138 100.385C32.1608 93.6298 27.2788 93.8538 27.2788 93.8538C33.8238 92.5488 39.5958 90.9688 39.5958 90.9688C39.5958 90.9688 45.8758 95.7858 53.4988 98.3218Z" fill="#4E0404"/>
<path opacity="0.6" d="M54.4579 82.4198C54.4579 82.4198 54.4579 82.4198 54.4579 82.4218C46.8089 85.2068 39.5969 88.7458 39.5969 88.7458C39.4799 88.1288 34.5509 83.2488 28.5089 80.2778C32.8479 77.5978 28.1059 73.3428 27.9009 72.9438C35.3699 77.2688 40.3799 84.3978 40.3799 84.3978C40.3799 84.3978 44.8059 80.1138 51.1819 76.2228C50.5859 80.6068 54.4579 82.4198 54.4579 82.4198Z" fill="#5D0707"/>
<path d="M41.1649 74.1018C41.0519 74.2258 35.2319 67.0918 32.0559 74.5398C29.9489 79.4808 30.3569 100.907 34.9579 100.797C39.5589 100.688 39.5979 98.4188 39.5979 98.4188C39.5979 98.4188 43.0099 103.348 46.6249 98.0898C50.2399 92.8318 50.9499 78.9208 49.3349 74.7588C47.7199 70.5968 44.4689 70.4868 41.1649 74.1018Z" fill="#741B0D"/>
<path opacity="0.4" d="M49.3339 74.759C47.7199 70.598 44.4679 70.488 41.1659 74.103C41.0529 74.225 35.2319 67.092 32.0559 74.54C29.9489 79.482 30.3569 100.907 34.9569 100.798C39.5589 100.688 39.5969 98.42 39.5969 98.42C39.5969 98.42 43.0109 103.349 46.6239 98.091C50.2389 92.832 50.9499 78.922 49.3339 74.759ZM34.4359 96.841C33.8229 97.416 31.8689 94.337 31.2419 87.452C30.6159 80.567 32.0239 74.515 33.6439 74.146C34.7909 73.885 33.5379 79.154 33.2769 84.685C33.0159 90.215 35.0509 96.267 34.4359 96.841ZM40.3189 96.111C37.7519 95.784 39.1609 78.701 40.4929 78.789C42.9059 78.947 42.8849 96.438 40.3189 96.111ZM45.8509 95.85C45.2249 95.068 47.5209 90.998 48.1469 85.969C48.7739 80.941 46.6279 74.236 47.4839 73.938C48.2299 73.677 50.1139 79.674 49.7649 85.155C49.4149 90.634 46.4779 96.632 45.8509 95.85Z" fill="#520404"/>
<path opacity="0.6" d="M39.5357 71.4798C33.1707 71.5518 34.2827 76.9958 40.0047 77.4818C45.7257 77.9668 49.1227 71.3718 39.5357 71.4798Z" fill="#FF2F2F"/>
<path opacity="0.6" d="M39.1618 72.3958C38.3648 72.5108 34.8018 74.9328 34.4588 83.6208C34.1148 92.3088 37.8608 100.289 37.8608 100.289L39.1618 72.3958Z" fill="#FF2F2F"/>
<path opacity="0.6" d="M41.8638 71.48C41.8638 71.48 45.5498 91.344 41.0698 99.846C41.0698 99.846 47.2328 94.208 47.4758 85.594C47.7178 76.98 41.8638 71.48 41.8638 71.48Z" fill="#FF2F2F"/>
<path d="M47.4769 19.3549C47.4769 19.3549 49.2779 8.64791 37.6469 9.66591C26.0159 10.6829 27.0069 35.0499 29.4669 50.1639C31.9269 65.2789 36.4009 77.5809 40.6509 76.4629C44.9009 75.3449 39.9839 62.9769 40.0739 45.8059C40.1219 36.6219 37.1969 18.3859 47.4769 19.3549Z" fill="#4D0B00"/>
<path opacity="0.4" d="M47.4769 19.3549C47.1619 19.3259 46.8599 19.3139 46.5689 19.3209C40.7559 19.4309 39.7169 26.4289 39.7259 33.8129V33.8149C39.7309 38.1099 40.0929 42.5329 40.0749 45.8069C39.9849 62.9779 44.9019 75.3449 40.6519 76.4629C38.1599 77.1189 35.5939 73.1629 33.3989 66.7329C41.9879 75.8139 36.3599 55.5269 36.3269 42.0929C36.2869 25.2419 38.1369 14.0769 30.8799 14.7329C32.3949 11.8209 34.5849 9.93291 37.6479 9.66591C49.2779 8.64791 47.4769 19.3549 47.4769 19.3549Z" fill="#FF2F2F"/>
<path opacity="0.4" d="M46.572 19.2289L46.568 19.3209C40.755 19.4309 39.716 26.4289 39.725 33.8129C38.255 22.2449 39.894 14.5979 43.121 13.3219C45.839 12.2489 46.572 15.9229 46.572 19.2289Z" fill="#FF2F2F"/>
<defs>
<linearGradient id="paint0_linear_111_5317" x1="153.596" y1="273.92" x2="153.596" y2="286.228" gradientUnits="userSpaceOnUse">
<stop stop-color="#97502D"/>
<stop offset="0.0577" stop-color="#954F31"/>
<stop offset="0.6655" stop-color="#7E4153"/>
<stop offset="0.9944" stop-color="#753C60"/>
</linearGradient>
<linearGradient id="paint1_linear_111_5317" x1="69.2744" y1="276.428" x2="237.557" y2="276.663" gradientUnits="userSpaceOnUse">
<stop offset="0.0184" stop-color="#FFFEF3"/>
<stop offset="0.0923" stop-color="#FFF9CB"/>
<stop offset="0.1725" stop-color="#FFF5A8"/>
<stop offset="0.2536" stop-color="#FFF18C"/>
<stop offset="0.3348" stop-color="#FFEF78"/>
<stop offset="0.4163" stop-color="#FFED6C"/>
<stop offset="0.4984" stop-color="#FFED68"/>
<stop offset="0.592" stop-color="#FFED6B"/>
<stop offset="0.6724" stop-color="#FFEF76"/>
<stop offset="0.748" stop-color="#FFF188"/>
<stop offset="0.8206" stop-color="#FFF4A1"/>
<stop offset="0.8912" stop-color="#FFF8C1"/>
<stop offset="0.9592" stop-color="#FFFCE8"/>
<stop offset="0.9944" stop-color="white"/>
</linearGradient>
<linearGradient id="paint2_linear_111_5317" x1="153.63" y1="23.0533" x2="153.855" y2="33.4141" gradientUnits="userSpaceOnUse">
<stop stop-color="#97502D"/>
<stop offset="0.0577" stop-color="#954F31"/>
<stop offset="0.6655" stop-color="#7E4153"/>
<stop offset="0.9944" stop-color="#753C60"/>
</linearGradient>
<linearGradient id="paint3_linear_111_5317" x1="9.23978" y1="25.2442" x2="24.1218" y2="25.2442" gradientUnits="userSpaceOnUse">
<stop stop-color="#97502D"/>
<stop offset="0.0577" stop-color="#954F31"/>
<stop offset="0.6655" stop-color="#7E4153"/>
<stop offset="0.9944" stop-color="#753C60"/>
</linearGradient>
<linearGradient id="paint4_linear_111_5317" x1="16.7367" y1="7.71739" x2="16.8473" y2="43.5228" gradientUnits="userSpaceOnUse">
<stop stop-color="#FFED68"/>
<stop offset="0.2703" stop-color="#FFF18D"/>
<stop offset="0.87" stop-color="#FFFDEB"/>
<stop offset="0.9944" stop-color="white"/>
</linearGradient>
<linearGradient id="paint5_linear_111_5317" x1="16.6685" y1="57.403" x2="16.9193" y2="31.0772" gradientUnits="userSpaceOnUse">
<stop offset="0.0024" stop-color="#35CFFF"/>
<stop offset="0.2085" stop-color="#5AD8FF"/>
<stop offset="0.6645" stop-color="#B8EEFF"/>
<stop offset="0.9944" stop-color="white"/>
</linearGradient>
<linearGradient id="paint6_linear_111_5317" x1="292.47" y1="25.2442" x2="277.588" y2="25.2442" gradientUnits="userSpaceOnUse">
<stop stop-color="#97502D"/>
<stop offset="0.0577" stop-color="#954F31"/>
<stop offset="0.6655" stop-color="#7E4153"/>
<stop offset="0.9944" stop-color="#753C60"/>
</linearGradient>
<linearGradient id="paint7_linear_111_5317" x1="285.262" y1="14.8007" x2="284.294" y2="36.706" gradientUnits="userSpaceOnUse">
<stop stop-color="#FFED68"/>
<stop offset="0.2703" stop-color="#FFF18D"/>
<stop offset="0.87" stop-color="#FFFDEB"/>
<stop offset="0.9944" stop-color="white"/>
</linearGradient>
<linearGradient id="paint8_linear_111_5317" x1="291.358" y1="57.3462" x2="280.7" y2="20.8536" gradientUnits="userSpaceOnUse">
<stop offset="0.0024" stop-color="#35CFFF"/>
<stop offset="0.2085" stop-color="#5AD8FF"/>
<stop offset="0.6645" stop-color="#B8EEFF"/>
<stop offset="0.9944" stop-color="white"/>
</linearGradient>
<linearGradient id="paint9_linear_111_5317" x1="154.023" y1="3.04084" x2="153.138" y2="46.4285" gradientUnits="userSpaceOnUse">
<stop stop-color="#97502D"/>
<stop offset="0.0577" stop-color="#954F31"/>
<stop offset="0.6655" stop-color="#7E4153"/>
<stop offset="0.9944" stop-color="#753C60"/>
</linearGradient>
<linearGradient id="paint10_linear_111_5317" x1="93.5735" y1="89.4491" x2="54.5441" y2="138.028" gradientUnits="userSpaceOnUse">
<stop stop-color="#B27D0F"/>
<stop offset="0.0577" stop-color="#D9B14A"/>
<stop offset="0.6655" stop-color="#B27D0F"/>
<stop offset="0.9944" stop-color="#FADE78"/>
</linearGradient>
<linearGradient id="paint11_linear_111_5317" x1="85.3467" y1="104.252" x2="43.5404" y2="156.288" gradientUnits="userSpaceOnUse">
<stop stop-color="#97502D"/>
<stop offset="0.0577" stop-color="#954F31"/>
<stop offset="0.6655" stop-color="#7E4153"/>
<stop offset="0.9944" stop-color="#753C60"/>
</linearGradient>
<linearGradient id="paint12_linear_111_5317" x1="59.2785" y1="16.7799" x2="59.1932" y2="36.9925" gradientUnits="userSpaceOnUse">
<stop stop-color="#FFED68"/>
<stop offset="0.2703" stop-color="#FFF18D"/>
<stop offset="0.87" stop-color="#FFFDEB"/>
<stop offset="0.9944" stop-color="white"/>
</linearGradient>
<linearGradient id="paint13_linear_111_5317" x1="247.576" y1="16.4144" x2="247.488" y2="37.2826" gradientUnits="userSpaceOnUse">
<stop stop-color="#FFED68"/>
<stop offset="0.2703" stop-color="#FFF18D"/>
<stop offset="0.87" stop-color="#FFFDEB"/>
<stop offset="0.9944" stop-color="white"/>
</linearGradient>
<linearGradient id="paint14_linear_111_5317" x1="55.2167" y1="56.5109" x2="45.367" y2="68.7708" gradientUnits="userSpaceOnUse">
<stop stop-color="#97502D"/>
<stop offset="0.0577" stop-color="#954F31"/>
<stop offset="0.6655" stop-color="#7E4153"/>
<stop offset="0.9944" stop-color="#753C60"/>
</linearGradient>
<linearGradient id="paint15_linear_111_5317" x1="222.882" y1="55.0228" x2="214.454" y2="65.5128" gradientUnits="userSpaceOnUse">
<stop stop-color="#97502D"/>
<stop offset="0.0577" stop-color="#954F31"/>
<stop offset="0.6655" stop-color="#7E4153"/>
<stop offset="0.9944" stop-color="#753C60"/>
</linearGradient>
<linearGradient id="paint16_linear_111_5317" x1="67.7339" y1="63.6059" x2="68.0093" y2="34.6913" gradientUnits="userSpaceOnUse">
<stop offset="0.0024" stop-color="#35CFFF"/>
<stop offset="0.2085" stop-color="#5AD8FF"/>
<stop offset="0.6645" stop-color="#B8EEFF"/>
<stop offset="0.9944" stop-color="white"/>
</linearGradient>
<linearGradient id="paint17_linear_111_5317" x1="246.179" y1="59.4642" x2="238.299" y2="32.4868" gradientUnits="userSpaceOnUse">
<stop offset="0.0024" stop-color="#35CFFF"/>
<stop offset="0.2085" stop-color="#5AD8FF"/>
<stop offset="0.6645" stop-color="#B8EEFF"/>
<stop offset="0.9944" stop-color="white"/>
</linearGradient>
</defs>
</svg>
